<svg xmlns="http://www.w3.org/2000/svg" xmlns:xlink="http://www.w3.org/1999/xlink" width="500" zoomAndPan="magnify" viewBox="0 0 375 374.999991" height="500" preserveAspectRatio="xMidYMid meet" version="1.0"><defs><clipPath id="e45bf5d075"><path d="M 79.964844 192 L 295.394531 192 L 295.394531 353.734375 L 79.964844 353.734375 Z M 79.964844 192 " clip-rule="nonzero"/></clipPath><clipPath id="efec24c2cb"><path d="M 81 21.484375 L 295.394531 21.484375 L 295.394531 181 L 81 181 Z M 81 21.484375 " clip-rule="nonzero"/></clipPath></defs><g clip-path="url(#e45bf5d075)"><path fill="#ff1616" d="M 228.425781 223.300781 L 215.734375 204.242188 L 203.011719 220.320312 L 183.945312 197.871094 L 148.765625 216.957031 L 145.402344 194.511719 L 113.613281 219.9375 L 110.25 194.511719 L 94.546875 210.203125 L 81.472656 202.386719 C 80.703125 210.585938 79.964844 219.554688 79.964844 228.164062 C 79.964844 317.480469 128.222656 353.734375 187.664062 353.734375 C 247.136719 353.734375 295.363281 317.480469 295.363281 228.519531 L 259.089844 192.269531 L 228.425781 223.300781 " fill-opacity="1" fill-rule="nonzero"/></g><g clip-path="url(#efec24c2cb)"><path fill="#ff1616" d="M 111.015625 149.292969 L 114.378906 174.71875 L 146.167969 149.292969 L 149.53125 171.738281 L 184.683594 152.65625 L 203.75 175.101562 L 216.472656 159.027344 L 229.191406 178.082031 L 260.980469 146.3125 L 295.363281 180.707031 C 294.242188 92.480469 246.398438 21.484375 187.664062 21.484375 C 134.183594 21.484375 89.707031 80.152344 81.472656 156.785156 L 95.3125 165.011719 L 111.015625 149.292969 " fill-opacity="1" fill-rule="nonzero"/></g></svg>